/* XPM */
static char *_a134d1e368d4598da2dc45b3fcf92f1BPJXrI75aq2Q0SB4[] = {
/* columns rows colors chars-per-pixel */
"32 32 7 1 ",
"  c #111111",
". c #890909",
"X c #911111",
"o c #9A1A1A",
"O c #A22222",
"+ c #AB2B2B",
"@ c #B33333",
/* pixels */
"                                ",
" @@@@@@@@@@@@@@  @@@@@@@@@@@@@@ ",
" ++++++++++++++  ++++++++++++++ ",
" OOOOOOOOOOOOOO  OOOOOOOOOOOOOO ",
" oooooooooooooo  oooooooooooooo ",
" XXXXXXXXXXXXXX  XXXXXXXXXXXXXX ",
" ..............  .............. ",
"                                ",
"                                ",
"@@@@@@@  @@@@@@@@@@@@@@  @@@@@@@",
"+++++++  ++++++++++++++  +++++++",
"OOOOOOO  OOOOOOOOOOOOOO  OOOOOOO",
"ooooooo  oooooooooooooo  ooooooo",
"XXXXXXX  XXXXXXXXXXXXXX  XXXXXXX",
".......  ..............  .......",
"                                ",
"                                ",
" @@@@@@@@@@@@@@  @@@@@@@@@@@@@@ ",
" ++++++++++++++  ++++++++++++++ ",
" OOOOOOOOOOOOOO  OOOOOOOOOOOOOO ",
" oooooooooooooo  oooooooooooooo ",
" XXXXXXXXXXXXXX  XXXXXXXXXXXXXX ",
" ..............  .............. ",
"                                ",
"                                ",
"@@@@@@@  @@@@@@@@@@@@@@  @@@@@@@",
"+++++++  ++++++++++++++  +++++++",
"OOOOOOO  OOOOOOOOOOOOOO  OOOOOOO",
"ooooooo  oooooooooooooo  ooooooo",
"XXXXXXX  XXXXXXXXXXXXXX  XXXXXXX",
".......  ..............  .......",
"                                "
};
