/* XPM */
static char *_1a19acf871e42b49709ab7338808546aDIHNrMlHzhEoagw[] = {
/* columns rows colors chars-per-pixel */
"64 64 234 2 ",
"   c #060B0E",
".  c #060606",
"X  c #03100D",
"o  c #050E11",
"O  c #041415",
"+  c #031916",
"@  c #051619",
"#  c #041C1D",
"$  c #091A1C",
"%  c #02211E",
"&  c #041E21",
"*  c #081F26",
"=  c #032424",
"-  c #082424",
";  c #032926",
":  c #042629",
">  c #08262A",
",  c #032C2B",
"<  c #082A2C",
"1  c #05312E",
"2  c #03312E",
"3  c #08312D",
"4  c #032E31",
"5  c #023131",
"6  c #053132",
"7  c #033532",
"8  c #023635",
"9  c #053636",
"0  c #033433",
"q  c #093334",
"w  c #033A35",
"e  c #033639",
"r  c #053A3A",
"t  c #033C3B",
"y  c #083A3B",
"u  c #083B37",
"i  c #153C39",
"p  c #03423D",
"a  c #04493D",
"s  c #08413B",
"d  c #043E41",
"f  c #044443",
"g  c #084343",
"h  c #044A44",
"j  c #034649",
"k  c #044C4A",
"l  c #094B4A",
"z  c #094847",
"x  c #035147",
"c  c #03534C",
"v  c #03594E",
"b  c #08534F",
"n  c #054F50",
"m  c #045452",
"M  c #035B53",
"N  c #095A54",
"B  c #045D5A",
"V  c #095C5B",
"C  c #085756",
"Z  c #036156",
"A  c #04635B",
"S  c #08645E",
"D  c #036A5E",
"F  c #085F60",
"G  c #056562",
"H  c #0B6463",
"J  c #046B63",
"K  c #0A6B65",
"L  c #046D69",
"P  c #0C6E68",
"I  c #037264",
"U  c #04746B",
"Y  c #0B726C",
"T  c #037A6D",
"R  c #067567",
"E  c #037771",
"W  c #0B7571",
"Q  c #047C72",
"!  c #0A7B75",
"~  c #057D78",
"^  c #0F7B78",
"/  c #07816F",
"(  c #038375",
")  c #04847B",
"_  c #028B7D",
"`  c #0C897E",
"'  c #098476",
"]  c #04907E",
"[  c #048D82",
"{  c #098F89",
"}  c #058984",
"|  c #128C82",
" . c #039384",
".. c #099185",
"X. c #03958B",
"o. c #0C948B",
"O. c #039B8C",
"+. c #089A8C",
"@. c #019986",
"#. c #14978C",
"$. c #099691",
"%. c #049D92",
"&. c #0C9B92",
"*. c #009C9F",
"=. c #139E97",
"-. c #02A18E",
";. c #0AA08F",
":. c #03A493",
">. c #0CA397",
",. c #03AA95",
"<. c #04A49A",
"1. c #0BA49C",
"2. c #03AC9C",
"3. c #0BAB9D",
"4. c #08AB96",
"5. c #13A499",
"6. c #03B29E",
"7. c #05B69A",
"8. c #20A897",
"9. c #04ADA2",
"0. c #0AACA2",
"q. c #05ACA7",
"w. c #13AAA1",
"e. c #15ABA4",
"r. c #03B4A4",
"t. c #0AB3A5",
"y. c #02BAA6",
"u. c #04B5AB",
"i. c #0BB5AB",
"p. c #03BBAB",
"a. c #0CBBAD",
"s. c #0BB9A6",
"d. c #1AB1A6",
"f. c #14B4AB",
"g. c #1CB6AC",
"h. c #12B9AE",
"j. c #17B8AA",
"k. c #03BDB2",
"l. c #0BBCB4",
"z. c #07B7B4",
"x. c #13BAB2",
"c. c #1CBBB3",
"v. c #19B8B6",
"b. c #24BAB6",
"n. c #24B0A6",
"m. c #02C2AC",
"M. c #06C3A8",
"N. c #03C3B3",
"B. c #0AC2B4",
"V. c #03C8B3",
"C. c #02C5BB",
"Z. c #04CBBB",
"A. c #0BCBBC",
"S. c #0BC6BA",
"D. c #11C4B3",
"F. c #12CCBD",
"G. c #1AC4BA",
"H. c #02D2BE",
"J. c #13D1BE",
"K. c #27C4BA",
"L. c #33CCBE",
"P. c #33CAB8",
"I. c #34D0BE",
"U. c #03CCC3",
"Y. c #01CDC9",
"T. c #0CCBC6",
"R. c #12CDC4",
"E. c #1ECCC5",
"W. c #19C6C3",
"Q. c #02D4CB",
"!. c #09D5CA",
"~. c #03DACA",
"^. c #07D6C5",
"/. c #13D5CB",
"(. c #1ED4C9",
"). c #16D4C4",
"_. c #02DEDA",
"`. c #0EDCD9",
"'. c #07D8D3",
"]. c #1DDDD2",
"[. c #15D9D3",
"{. c #27CAC2",
"}. c #33CAC4",
"|. c #23D3CC",
" X c #2CD5CA",
".X c #36D9CB",
"XX c #25DCD6",
"oX c #35DAD4",
"OX c #00E2CD",
"+X c #01E3D6",
"@X c #03E5DA",
"#X c #06E8D8",
"$X c #18E4D8",
"%X c #24E1DD",
"&X c #2AE5D8",
"*X c #35E4D9",
"=X c #00E6E3",
"-X c #04EAE3",
";X c #02EDEA",
":X c #16E8E1",
">X c #01F2EA",
",X c #0CF0E9",
"<X c #26EBE6",
"1X c #39E9E2",
"2X c #38F1E8",
"3X c #22FDFA",
"4X c #47DDD0",
"5X c #46D5C9",
"6X c #5DE7CC",
"7X c #42E3D9",
"8X c #5EEAD8",
"9X c #59F6D5",
"0X c #6DF9DC",
"qX c #67F3D9",
"wX c #6BEFD8",
"eX c #45EEE9",
"rX c #4AECE7",
"tX c #4AF6EB",
"yX c #5BF6E8",
"uX c #5BFAF4",
"iX c #6BF4E3",
"pX c #6CFCED",
"aX c #6AF6EA",
"sX c #75F8E7",
"dX c #65FBF4",
"fX c #6AFCF4",
"gX c #7BFFFA",
"hX c #76FDF4",
"jX c #66EEE1",
"kX c #84FBF4",
"lX c #89FCF4",
"zX c #8FFBEE",
"xX c #A0FBEF",
"cX c #A3FEFB",
/* pixels */
", , , , 4 , 2 , , , = = = = = # @ # - = = , = = = & - * = # & : - < , , , = = > > = 0 = & = & # @ # # # = = , : ; = = = = = = = ",
"e t r e 0 0 u y h r 1 2 , = = < 5 9 0 5 8 9 t 7 , = , 9 = = > 0 0 5 5 9 t r 9 r 9 e , , , , = = = , 5 , 7 7 5 5 1 1 0 7 0 5 1 1 ",
"y h p c 8 7 u h m u 7 , , , 0 t e f t k y 0 e 9 , , < 7 , 5 , , 9 r r 9 m m h t f m 9 > ; , = ; , , e e p 9 0 , 1 , , 0 e 5 0 , ",
"2 t = j 4 , , 2 t = = = - = = = & = > , = = = : : > : : , = = : - 4 h , j f t 0 , f , # & # # & # # = ; , - = = ; = = # = , = = ",
"5 9 = - , , , 5 > # = & & - = = : , , , = = > > , @ # = # & & # # ; t , < < 1 < 0 1 = # O @ @ % # = > , , # # = = = - # # = = = ",
", 9 e h j f t 0 , < 9 r t f h f 9 8 f j h l k h c b f h m B m k h c M c k j C m l f r t t y t f e 9 r f t f g t e 9 , , 9 p t f ",
"% % , f 0 2 , ; # + # > , 0 0 , , e t p t f p 7 8 9 t u u w 8 f t 2 7 w f e f t t 2 % # ; 9 , , , , , 7 , u 8 , = ; , = = = , < ",
"O O # = = , = # # # # = = = = = , 8 t e 8 8 w 2 7 2 w 2 , , , < ; = = , t t e 8 2 % % = ; 4 , , ; , , , , = - = = = = = # # @ # ",
"@ # & = = = , = = & = = , , > = = 7 t p p y t t u p y 8 7 2 7 p , = , 2 8 8 9 p 8 0 , 2 2 w ; , : = , , 5 0 , = , , , ; = # # # ",
"> < 1 0 1 9 j p w u t f c h h j l M G U M B L U A A K G m p t D x s c j c h a h h b m A M h z f p f k l k k h p f C m y u 2 7 9 ",
"@ # @ @ @ = = = = < , ; = ; , , = p k c k c c A A M B Z x p u c t u p a a p c f h p k h s 2 w u > = = 7 2 , > , , , ; , , > # + ",
"O + + # # # & # & = , = = = % = = 8 h c h m B D A Z D I v h p t 7 2 p x h a h h h h p a p 0 < , = = = 2 7 : ; , , = = = , = # # ",
"= > - = - r 5 0 f t p 5 , e h f , r c A M Z A ! Q U R ) [ ! B m f h h c v Z J B M T ! A c w 2 t 4 , , e p 0 , < h t e t f t 5 > ",
"; , 9 7 1 u t u f p t e h l f h y k M G J } X._ [ +.%.:.-...U ) J J I R Q Q Q U T Q ! A c J J p t 7 1 t t f h p h f f f f p p d ",
"# # # = = & = = = = = = , = = = 2 h c M m 9.N.Q [  .9.O...( T T A J ( ' Q U D A T J M h p M h < 1 > = ; , = 9 k ; < , , ; = % = ",
"> = = = = , , , = ; = = = , 1 , 1 h M D R [ %.:.%.O.%.@.O.+.+..._ N.:. .( ( ( R ) R Z c a w t s 2 , , ; , : , 5 , 0 , , = = = = ",
"f , 0 0 , , 0 0 0 , 2 1 f k f h c A R U U _ X.O.$.%.%.1.<.%.X.{ %.U.%.5.#.#.$. .1.) T Q U G J B a a p z p p p 0 8 0 0 , = < , r ",
", 1 , , , , 9 0 0 5 9 0 p h c D v U ! X.[ ,.6.2.t.r.<.<.t.N.p.r.6.t.p.s.3.3.t.2.2.-...[ ( R Q D c p p h p w e u 9 r 0 , , ; , , ",
"% % # = % , , 2 1 2 8 0 p h Z ..Q Q @.2.O.,.p.p.N.y.2.6.p.V.m.p.r.m.p.2.2.,.6.2.2.,.O.X._ R I A ( A j w f 7 , , , 7 5 , = - = : ",
"= = # # = ; = , , 5 p p 8 p Z U N.} <.9.,.r.V.V.N.y.9.p.u.p.m.m.N.p.p.p.N.r.2.:.,.:.-.@.@.' U A c ! J h m w , 2 5 , , = = , = # ",
"0 f f d f h d z f m A L L E ! U ( ) %.9.u.9.r.A.Y.U.9.i.b.}.G.z.c.{.a.9.1.i.c.b.f.f.K.b.1.+.{ [ ~ Y V A U G C C B k z t e f j f ",
"# # % = # # @ - 0 ; 2 7 c B M D ( ,.2.r.p.Z.~.+X3X-Xk.p.N.Z.^.#XA.R.Z.U.Z.m.T.].k.a.M.s.:.O.U A v c c h t p u , = = , , @ # # > ",
"# # @ = # = # # , , 9 u k m M J _ :.2.r.N.^.#X>XcX2Xk.2.,.2.r.C.N.N.N.C.N.C.rXxX2.<.p.r.O._ Q Z x k k f t 8 7 , , = : & @ @ @ & ",
"= = 8 2 , = = , , 0 f c Z B c D ( O.t.u.S.^.'.=XlXhXC.%. .%.%.<.p.p.k.U.R._.lXsXi.>.2.2.:.@.( Z c M c c c h p 9 1 0 , , # # # = ",
"q q g t e 9 , , 2 f m m c M Z J [ 9.N.R.(.$X$X:XuXpX1X9.:.i.w.w.h.D.l.].`.eXhXtXE.g.G.A.p.O._ Q J J J U A m c k s u 9 1 > = = = ",
"O # % # = ; # # # = t w u k k I ) :.m.H.~.#X#X>XdX<XpXY.u.p.%.X.9.:.r.C.'.kX<XyXk.<.6.N.2._ _ D v c x c h w 1 2 , - = & & # @ # ",
"O % # = = = & = % ; 7 9 f k v R X.,.y.H.OX#X-X;XdX=XfX1XU.k.r.r.p.%.2.C.eXiXY.pXS.r.:.:.O.[ O.J A J B k p 8 w , < = - , = = & # ",
"> , u 4 l f p q q = s t f A Q } <.f.G.G././.T._.dX'.%XpXC.f.u.9.0.1.>.k.kX|.E.pXS.i.t.3.5.o.) ) U G R L K B l C k f q 5 & < # = ",
"= # , < , , = , > ; 7 9 c v D Q <.a.B.).$X$X#X-XdX:XQ.yX*XN.u.U.B.T.U.rXaXN.$XdX!.k.u.t.1.:.[ Q I J D v k k f y 5 0 u = - # # = ",
"# $ # = + # & = = = 0 7 p h m U  .2.y.~.>X+X-X;XgX,XU.|.pXC.q.k.u.U.Q.kX{.u.'.uX~.N.r.2.<. .( J D D M h p A y = ; < r # % # # # ",
"& # & - = = = , 1 < 5 p h c A U ) C.N.Z.+X@X@X;XfX`.Z.u.8XoXp.k.p.Y.eXiX9.k.!.yX'.S.2.-.O. .( I A M J J 8 m f , , , y , = = # - ",
"m , = 9 t f h h k f c m A T ) ( O.x.F.E.).%X$X-XgX[.S.G.{.sX XG.}.<XkX{.L.oX&XhX7X5Xg.<.1.0.&.=.} ) { ~ c h C m n N k p e 7 , 7 ",
"= & @ # # , = = # = , 7 t c J T U ( 2.!.#X-X;X=XdX.X%.&.X.6XI.X.p.tXwXO.a.C.eXaXQ.l.t.r.y.:.[ ) M h 8 p p w 7 9 9 : # O O O O O ",
"# O O @ O = # % @ # ; , w p M Z A T  .r.Q.+X;X_.].0X:.( ( 8.qXq.U.gX[.<.u.U.lX].U.p.2.2.:._ T D k t ; , , 2 = , , & @ O O O o O ",
"0 y 2 0 l m k t 9 p h j f B Y Q R R ..x.R.Q._.`.C.qXP.) o.} 6X&XoXcX2X7X*XaXjXq.a.i.0.,.X.) T J k h t p h h k B B k 9 = ; , = # ",
"f j f z h h k k l j j j c B ! Q J ` o.w.j.S.A.F.h.b.sX1.o.[ d.pX&XsXgXhX0X0Xx.x.(.x.K.5.&.) L I I c h k k m N C C j r u < , , , ",
"O @ O O o   O # @ @ # # 1 ; k Z a Z T _  .,.<.p.u.[ 6XP.Q /  .qXoX*.u.u.X.) [ :.u.O.@.+.' A v v Z 0 = = % % & O O @ O O o     O ",
"# = O O @ #   O @ # ; % , 2 p h p v T _ [ 2.<.2.<.X.d.0X<._ O.W.pXO.,.N.O.( 2.,.@. .X.O.T M v x a > = ; = % % # @ @ + o O O o O ",
"j l C l < 4 k h k c A G A J A S J } [ =.d.<.<.3.d.g.x.iX.Xc..Xf.6XL.l.&X Xc.c.K.G.d.f.h.=.' U Y W G S A m n h y y k j h d d h l ",
"- p B N t > = 3 t w h t c A K K B M v K ' [ R M ` | >.|.0XU.R.W n.0XC.R.).a.3.h.h.B.A.a...R I Y l k 8 w t 0 2 , , > , > 9 , = ; ",
"= - o . O , < > m B B p , ; u p N H A _  .( _ :.9.[ T } 8X&Xk.} k.9X&XU.H.r.2.C.N.H.~.p.' A c v u , , 2 2 ; = # + O + # # = # @ ",
"3 u > < 0 9 z l 0 u p c m c c 0 i P o.| ) <.9.w.j.F.;.T j.lX0XiXaXxXkX_.[.(.K.(.).Z./.0._ ( I Y c a z m m j p 8 f r 9 > > : = ; ",
"y k C H m V ! H v ! m h h m m G g.5.| &.0.t.a.e.n.*XE.w.%.|.rX7X5X4XXX%X*X5X5X4X XA.#Xt.[ &.! ^ H o.o.G G G L m C F V y = , , f ",
"# & # = # # # , 9 9 u y h h p f Q _ Q @.O.u.9.:.O.2.S.2.-.O. .[ ( T O.~.V.V.m.p.Z.m.p.2.O.) m h w B m 2 0 , 4 & # O # = @ # - , ",
"= , = 5 = - = , 7 , 7 7 s 8 p h N Y R _  .O.@.X.X.:.B.4.,.M.7.Z.N.r.M.Z.7.m.y.6.N.p.4...) T c h p p w 8 t q u = # @ # = # # = = ",
"d r k C M M A G L m G U G G ! J K W Q } O.&.$.o.&.O.x.D.B.C.R.'.`.`.T.]. XP.x.u.i.B.<.3.a.$.Q R Z M h f p m G k f j j j d k j m ",
"k y j j k V m k k k M m m M A L D I Q 9.!.<.<.3.+.O.p.S.A.^.A.D.^.:XF.).K.K.J.N.p.2.4.>...) U R M c h h p G j f j t 8 t d h d f ",
", 0 , : = 4 = = = 0 0 2 2 , t h M M I T :._ ) _ _ O.r.m.m.V.M.7.y.N.y.r.2.-.6.,.-.O. .R A v p h 8 t 8 p u 9 , = = # # & , : = = ",
"9 e 4 4 , 9 2 4 , , u 7 8 8 c m Z M A U D R T R U  .:.2.r.y.:.-.:.y.p.,.:.O.6.:.O.@._ I M c h h h t t e 7 , ; ; , = = , 4 0 4 4 ",
"f c l h p r r j m f p 9 f h h v m J J Q ( Q ) ( ) O.<.3.<.f.=...&.x.l.i.0.0.0.<.<.X.Q J L A Z k f p h h h a t 8 , = y k j j t t ",
"0 5 e e 4 , 0 w 5 , = = = , , 7 e k M B m D M B M D $.1._ ] ' / ( O.+.-. .! ( R ' R M p w t 7 2 , 9 7 0 0 , 0 : = = , 4 0 0 , ; ",
"= = , , > ; = , > % # @ % = # = 2 8 p k f v c x x m T  .( I I D I _ _ ' I J D Z A M c p 2 , , = # = = = ; = = = # # # = , : & ; ",
"e t f f f h f h f p r e h f p r t p h c B J J k c Z J U U U L I U E ) _ Q E ! J D A B k h h r , 1 7 , 2 9 r y t 9 9 9 9 p r f k ",
"m m c k C m c h j m k k k h k h f y h B A U J ~ L h m A B R R E ) X.[ Q Q E E R L U } A c k f p p t 9 t j h l j h f y t d h k k ",
"= , ; = = < , = = = , = # # = = % ; 0 p 9 e e k f u e p h h h h m Z A Z x h k p w w f w = = # = # # % = = = = = = # # # # > # = ",
", , < 0 , 0 4 0 9 = , = = & = , , , 0 f e e t t e 7 w t t t 8 p p c k h B m z e h A f 5 > < = = - - = , : : : , , = # & : , > ; ",
"j m k L k j y C J p y f f p p t p k l l f k t h k l m B B B M C A L E A Q L M M G ~ B h p f f y e 9 e f h f e e t e t y y f f h ",
"e f , y 0 5 2 p f , = = , , , = , g r e 0 t r e 8 0 e 9 7 e e u 9 j G h l f f t h k 2 ; = ; = ; = > , 4 9 : , , , , , , ; = : 0 ",
"= = = , 2 , < , = # = = = = = # , 1 , < , 1 2 , , = = , , , , 2 , , , 0 5 0 u 2 2 , = # = = = = = = ; , ; = < , = = - = & : = ; ",
"e y f f y p p e 1 = < 9 4 8 p l M Z c z k z k f t 2 7 y > y y t p , , t c m C m l 0 % = 1 t 9 r y h l c m l y e 0 u t r 9 r 0 0 ",
"= = = , = 7 , = # # & = ; 0 8 0 < 0 e p 0 < 2 , , ; , # = ; & = & = , = , , h 9 ; = # @ # # = , > > , 9 r < = , < = = = = = = = ",
"O # $ # = = = = = = = > , < : = = , , > , > = = < > > = # @ # # O O @ # = = , = = # = # # = = = = % = , 0 < = = , = , ; = = # % ",
"# = & & = ; > - , , 5 , , , 5 < = , , 7 , , , u u e < = = = # = # # - - = = > < = = , , > = = < , = > 0 5 , 4 5 7 2 , 5 , , = & ",
"= , 9 t t t 9 5 8 f k j f k c f , 7 d j j k m n B L C k k j d k 9 5 p f 9 9 r y f j j m k f k h r 4 9 f j k m j h f t h k f t 7 "
};
